<?xml version="1.0" encoding="UTF-8" ?>
<!DOCTYPE svg PUBLIC "-//W3C//DTD SVG 1.1//EN" "http://www.w3.org/Graphics/SVG/1.1/DTD/svg11.dtd">
<svg width="105pt" height="115pt" viewBox="0 0 105 115" version="1.1" xmlns="http://www.w3.org/2000/svg">
<path fill="#040404" d=" M 50.00 3.18 C 52.70 2.64 55.60 1.24 58.30 2.53 C 58.35 2.55 58.45 2.60 58.50 2.62 C 67.97 8.18 74.21 17.58 79.62 26.86 C 81.63 25.70 83.57 24.42 85.44 23.05 C 86.14 23.03 87.52 22.99 88.21 22.96 C 86.84 25.08 85.47 27.21 84.20 29.39 C 82.49 31.42 83.58 33.55 84.20 35.75 C 84.76 35.98 85.88 36.45 86.44 36.68 C 88.59 37.70 90.54 39.07 92.56 40.31 C 95.94 41.66 98.60 44.39 102.17 45.28 C 102.28 47.48 99.92 46.86 98.47 47.18 C 95.44 49.13 91.72 48.51 88.56 49.69 C 86.04 50.74 83.82 52.34 81.89 54.26 C 81.50 58.91 83.39 63.31 82.92 67.95 C 82.63 70.44 83.64 73.29 82.11 75.49 C 81.98 77.48 81.91 79.48 81.82 81.48 C 80.06 84.25 79.00 87.41 77.22 90.16 C 74.21 93.52 70.84 96.56 67.63 99.73 C 66.41 100.15 65.44 101.01 64.54 101.91 C 64.03 101.94 63.00 102.00 62.49 102.02 C 60.87 103.04 59.15 103.90 57.54 104.93 C 52.52 105.04 47.49 105.06 42.46 104.92 C 41.86 104.61 40.65 104.00 40.05 103.69 C 39.56 103.49 38.60 103.11 38.12 102.91 C 31.85 101.50 27.16 96.87 22.85 92.40 C 22.79 92.34 22.67 92.22 22.61 92.16 C 20.07 89.69 18.05 86.71 16.77 83.39 C 16.23 82.45 15.70 81.51 15.17 80.58 C 14.45 76.56 13.64 72.62 13.92 68.50 C 12.87 67.00 12.49 65.20 12.00 63.47 C 12.51 63.56 13.52 63.72 14.03 63.81 L 14.77 63.92 C 14.85 63.52 14.99 62.70 15.06 62.30 C 15.00 60.62 14.97 58.94 14.98 57.26 C 15.76 57.26 17.33 57.27 18.11 57.27 C 18.62 58.31 19.21 59.30 19.88 60.24 C 20.25 59.16 20.60 58.07 20.94 56.98 C 19.67 56.92 18.40 56.88 17.13 56.86 C 17.23 56.42 17.42 55.56 17.52 55.12 C 15.57 57.40 13.84 52.74 12.66 51.50 C 12.62 51.44 12.54 51.31 12.50 51.25 C 11.59 49.25 8.01 45.08 12.31 44.73 C 11.88 47.25 13.45 49.27 14.99 51.04 C 18.32 55.49 24.28 56.00 29.08 58.03 C 37.34 60.00 46.66 61.15 54.43 56.86 C 50.23 61.76 43.51 61.90 37.98 64.33 C 34.85 65.45 31.60 63.97 28.84 62.56 C 28.30 62.83 27.23 63.37 26.70 63.63 C 26.08 63.96 24.85 64.60 24.23 64.92 C 20.77 66.62 19.29 71.77 21.76 74.84 C 21.92 72.81 22.01 70.77 22.08 68.74 C 26.62 70.63 30.19 74.07 33.84 77.25 C 34.98 73.34 36.16 69.44 37.27 65.52 C 41.43 67.65 44.20 71.58 47.83 74.41 C 48.58 72.94 49.32 71.47 50.04 69.98 C 51.45 67.06 52.67 64.02 54.55 61.36 C 54.71 61.17 55.03 60.80 55.19 60.61 C 56.53 61.99 57.88 63.36 59.23 64.74 C 60.00 65.61 60.79 66.46 61.58 67.31 C 62.03 65.02 63.33 62.67 62.82 60.31 C 61.57 58.71 60.18 57.21 58.96 55.57 C 60.46 55.09 62.00 54.76 63.58 54.76 C 63.09 53.82 62.61 52.86 62.16 51.89 C 62.35 50.38 62.63 48.88 63.00 47.40 C 63.71 50.16 64.50 52.97 66.14 55.35 L 66.63 55.58 C 70.22 57.09 73.85 58.48 77.43 59.99 C 78.18 57.15 78.50 53.87 80.87 51.82 C 84.62 48.07 90.19 47.57 95.06 46.30 C 96.12 46.12 97.19 45.98 98.25 45.83 C 95.39 44.41 92.46 43.14 89.53 41.87 C 86.29 39.62 81.79 38.54 79.59 35.15 C 79.75 34.39 80.07 32.88 80.23 32.12 C 80.94 31.05 81.69 30.00 82.42 28.93 C 78.86 31.07 75.47 33.51 71.81 35.48 C 66.40 37.90 63.48 43.26 58.94 46.74 C 58.70 46.27 58.22 45.33 57.98 44.86 C 56.10 40.71 53.98 36.67 51.67 32.75 C 47.45 33.90 45.71 38.28 42.53 40.86 C 41.61 41.53 40.66 42.17 39.71 42.80 C 38.30 39.57 37.28 36.20 36.12 32.87 C 33.66 33.51 31.29 34.55 30.07 36.93 C 29.43 36.33 28.78 35.72 28.14 35.12 C 26.51 35.81 24.89 36.50 23.27 37.18 C 23.30 36.37 23.33 35.57 23.36 34.76 C 22.86 34.51 21.85 34.01 21.35 33.76 C 21.41 34.19 21.54 35.06 21.60 35.49 C 20.32 36.31 19.94 37.73 19.62 39.13 C 20.26 39.25 21.54 39.49 22.17 39.61 C 21.74 41.25 20.84 42.55 18.97 42.41 C 18.88 39.94 18.81 37.46 18.62 34.99 C 16.66 38.28 17.19 42.39 16.12 46.01 C 17.47 46.34 18.82 46.67 20.17 47.00 C 21.55 45.32 23.11 43.80 24.90 42.57 C 25.48 44.54 26.02 46.53 26.57 48.51 C 29.71 48.91 32.85 49.30 36.00 49.61 C 37.11 48.46 38.18 47.24 39.47 46.26 C 41.48 46.59 42.17 48.91 43.37 50.27 C 44.99 48.65 46.54 46.96 48.04 45.23 C 49.72 46.59 51.36 47.98 52.97 49.41 C 54.42 48.97 55.87 48.53 57.33 48.13 C 55.75 49.36 54.09 50.52 52.23 51.30 C 47.84 52.47 43.27 52.22 38.78 52.24 C 38.10 51.57 37.29 51.25 36.33 51.27 C 31.14 50.88 26.10 49.60 21.03 48.54 C 18.40 47.92 15.56 47.47 13.46 45.62 L 14.65 43.66 C 14.69 43.60 14.76 43.49 14.79 43.44 L 14.65 43.35 C 14.13 43.03 13.11 42.39 12.59 42.07 C 13.16 38.25 13.73 33.81 11.17 30.55 C 16.41 25.51 14.15 17.33 13.95 10.89 C 15.28 11.89 16.49 13.03 17.56 14.31 C 17.13 14.67 16.28 15.38 15.85 15.74 C 16.32 17.71 16.75 19.68 17.05 21.68 C 16.74 24.74 15.69 27.64 14.10 30.26 C 14.43 31.36 14.76 32.45 15.10 33.54 C 16.73 30.47 19.39 27.34 18.47 23.63 L 19.74 25.64 C 23.37 22.39 17.24 19.18 18.52 15.87 C 20.06 17.75 21.35 19.83 22.86 21.74 C 24.79 19.79 26.33 17.35 28.80 16.02 C 32.29 13.95 34.85 10.64 38.45 8.71 L 38.63 8.61 L 38.81 8.50 C 41.88 7.00 44.81 4.87 48.14 4.08 C 48.60 3.86 49.54 3.41 50.00 3.18 Z" />
<path fill="#788383" d=" M 58.30 2.53 C 58.35 2.55 58.45 2.60 58.50 2.62 C 58.45 2.60 58.35 2.55 58.30 2.53 Z" />
<path fill="#6b676f" d=" M 48.21 3.19 L 49.17 2.72 L 50.00 3.18 C 49.54 3.41 48.60 3.86 48.14 4.08 L 48.21 3.19 Z" />
<path fill="#e4edee" d=" M 49.23 7.18 C 51.59 6.09 53.97 5.08 56.39 4.16 C 63.74 9.64 70.89 15.71 75.49 23.79 C 74.29 24.17 73.12 24.08 71.98 23.51 C 71.12 22.16 70.33 20.78 69.48 19.43 C 68.39 17.43 66.40 15.77 63.98 16.59 C 60.48 17.11 56.92 17.11 53.45 17.77 C 52.24 18.12 49.83 19.06 51.12 20.66 C 53.37 23.46 55.93 26.16 59.02 28.04 C 62.75 29.09 64.48 24.93 66.67 22.78 C 68.01 26.15 69.29 29.56 70.70 32.91 C 67.14 35.77 64.15 39.27 61.39 42.89 L 61.01 41.96 C 60.41 40.43 59.73 38.93 59.04 37.43 C 58.85 36.72 58.47 35.28 58.28 34.57 C 58.08 34.24 57.68 33.59 57.48 33.26 C 55.52 31.64 54.82 29.07 53.54 26.96 C 51.39 28.02 49.82 31.44 47.10 30.04 L 48.00 31.75 L 46.08 30.60 L 46.96 33.15 L 44.73 30.35 L 45.64 33.89 L 43.46 32.67 L 44.89 35.13 C 44.45 34.81 43.55 34.17 43.10 33.86 C 42.92 34.51 42.56 35.80 42.38 36.45 L 40.70 36.40 C 40.87 33.38 38.95 30.83 37.87 28.13 C 37.34 26.12 34.55 25.68 35.54 23.26 C 31.93 26.01 28.37 28.95 25.40 32.38 L 25.41 34.34 C 23.56 32.69 23.76 30.11 23.71 27.88 C 22.97 28.19 21.49 28.82 20.75 29.14 C 21.79 27.77 22.83 26.39 23.84 25.00 L 24.37 24.98 C 26.95 25.01 29.54 24.74 32.04 24.06 C 31.58 22.55 31.11 21.05 30.64 19.55 C 31.93 18.43 33.24 17.33 34.56 16.23 C 36.03 18.28 37.30 20.49 39.04 22.33 C 40.38 22.78 41.47 22.45 42.29 21.35 C 45.73 17.44 49.04 12.89 49.19 7.47 L 49.23 7.18 Z" />
<path fill="#8e9191" d=" M 38.45 8.71 C 38.54 8.66 38.72 8.56 38.81 8.50 L 38.63 8.61 L 38.45 8.71 Z" />
<path fill="#714f94" d=" M 44.12 9.85 C 45.61 8.69 47.44 8.10 49.19 7.47 C 49.04 12.89 45.73 17.44 42.29 21.35 C 41.47 22.45 40.38 22.78 39.04 22.33 C 37.30 20.49 36.03 18.28 34.56 16.23 L 34.33 15.91 C 34.95 15.86 36.19 15.78 36.81 15.74 C 36.90 15.19 37.07 14.09 37.16 13.53 C 37.99 13.21 38.83 12.88 39.66 12.54 C 39.63 13.07 39.55 14.13 39.52 14.66 C 38.77 15.02 38.03 15.39 37.28 15.76 C 37.98 16.23 39.38 17.17 40.08 17.64 C 41.39 15.02 42.67 12.39 44.12 9.85 Z" />
<path fill="#e4edee" d=" M 39.66 12.54 C 41.14 11.63 42.60 10.69 44.12 9.85 C 42.67 12.39 41.39 15.02 40.08 17.64 C 39.38 17.17 37.98 16.23 37.28 15.76 C 38.03 15.39 38.77 15.02 39.52 14.66 C 39.55 14.13 39.63 13.07 39.66 12.54 Z" />
<path fill="#9b6cac" d=" M 17.56 14.31 L 17.87 14.05 C 18.07 14.39 18.49 15.08 18.70 15.42 L 18.52 15.87 C 17.24 19.18 23.37 22.39 19.74 25.64 L 18.47 23.63 C 18.02 22.96 17.55 22.31 17.05 21.68 C 16.75 19.68 16.32 17.71 15.85 15.74 C 16.28 15.38 17.13 14.67 17.56 14.31 Z" />
<path fill="#3e9176" d=" M 53.45 17.77 C 56.92 17.11 60.48 17.11 63.98 16.59 C 64.86 18.61 65.81 20.60 66.86 22.54 L 66.67 22.78 C 64.48 24.93 62.75 29.09 59.02 28.04 C 55.93 26.16 53.37 23.46 51.12 20.66 C 49.83 19.06 52.24 18.12 53.45 17.77 Z" />
<path fill="#1a4f55" d=" M 63.98 16.59 C 66.40 15.77 68.39 17.43 69.48 19.43 C 68.60 20.47 67.73 21.50 66.86 22.54 C 65.81 20.60 64.86 18.61 63.98 16.59 Z" />
<path fill="#3e9176" d=" M 24.37 24.98 C 26.37 23.07 28.51 21.31 30.64 19.55 C 31.11 21.05 31.58 22.55 32.04 24.06 C 29.54 24.74 26.95 25.01 24.37 24.98 Z" />
<path fill="#6989b0" d=" M 69.48 19.43 C 70.33 20.78 71.12 22.16 71.98 23.51 C 71.17 24.53 69.47 25.38 69.84 26.93 C 70.42 28.71 71.37 30.32 72.22 31.97 C 71.84 32.20 71.08 32.67 70.70 32.91 C 69.29 29.56 68.01 26.15 66.67 22.78 L 66.86 22.54 C 67.73 21.50 68.60 20.47 69.48 19.43 Z" />
<path fill="#403c80" d=" M 17.05 21.68 C 17.55 22.31 18.02 22.96 18.47 23.63 C 19.39 27.34 16.73 30.47 15.10 33.54 C 14.76 32.45 14.43 31.36 14.10 30.26 C 15.69 27.64 16.74 24.74 17.05 21.68 Z" />
<path fill="#403c80" d=" M 75.49 23.79 L 75.93 23.69 C 76.41 25.37 76.88 27.04 77.33 28.73 C 75.55 29.69 73.83 30.75 72.22 31.97 C 71.37 30.32 70.42 28.71 69.84 26.93 C 69.47 25.38 71.17 24.53 71.98 23.51 C 73.12 24.08 74.29 24.17 75.49 23.79 Z" />
<path fill="#e4edee" d=" M 71.81 35.48 C 75.47 33.51 78.86 31.07 82.42 28.93 C 81.69 30.00 80.94 31.05 80.23 32.12 C 78.87 32.79 75.20 33.13 76.75 35.56 C 76.43 35.56 75.79 35.55 75.48 35.54 C 74.56 35.53 72.73 35.50 71.81 35.48 Z" />
<path fill="#3a876e" d=" M 17.15 34.90 C 18.19 32.37 20.31 29.88 22.98 29.05 C 23.67 32.60 19.52 33.69 17.15 34.90 Z" />
<path fill="#9b6cac" d=" M 30.07 36.93 C 31.29 34.55 33.66 33.51 36.12 32.87 C 37.28 36.20 38.30 39.57 39.71 42.80 C 40.66 42.17 41.61 41.53 42.53 40.86 C 42.87 41.22 43.56 41.95 43.90 42.31 C 44.97 41.44 46.04 40.57 47.10 39.69 L 47.45 39.65 C 48.37 41.20 48.70 43.73 51.04 43.52 C 51.84 42.53 52.57 41.50 53.23 40.42 C 54.05 42.28 55.06 44.06 56.04 45.84 C 56.53 45.60 57.49 45.11 57.98 44.86 C 58.22 45.33 58.70 46.27 58.94 46.74 C 63.48 43.26 66.40 37.90 71.81 35.48 C 72.73 35.50 74.56 35.53 75.48 35.54 C 73.69 37.26 71.54 38.50 69.48 39.85 C 66.81 41.80 64.14 44.20 63.00 47.40 C 62.63 48.88 62.35 50.38 62.16 51.89 C 60.66 51.70 58.97 50.59 57.51 51.44 C 55.34 52.42 55.82 55.25 54.43 56.86 C 46.66 61.15 37.34 60.00 29.08 58.03 C 24.28 56.00 18.32 55.49 14.99 51.04 C 13.45 49.27 11.88 47.25 12.31 44.73 C 12.60 44.96 13.17 45.40 13.46 45.62 C 15.56 47.47 18.40 47.92 21.03 48.54 C 26.10 49.60 31.14 50.88 36.33 51.27 C 36.86 52.07 37.43 52.84 37.99 53.62 C 42.68 52.03 47.89 54.35 52.23 51.30 C 54.09 50.52 55.75 49.36 57.33 48.13 C 55.87 48.53 54.42 48.97 52.97 49.41 C 51.36 47.98 49.72 46.59 48.04 45.23 C 46.54 46.96 44.99 48.65 43.37 50.27 C 42.17 48.91 41.48 46.59 39.47 46.26 C 38.18 47.24 37.11 48.46 36.00 49.61 C 32.85 49.30 29.71 48.91 26.57 48.51 C 26.02 46.53 25.48 44.54 24.90 42.57 C 23.11 43.80 21.55 45.32 20.17 47.00 C 18.82 46.67 17.47 46.34 16.12 46.01 C 17.19 42.39 16.66 38.28 18.62 34.99 C 18.81 37.46 18.88 39.94 18.97 42.41 C 20.84 42.55 21.74 41.25 22.17 39.61 C 22.00 38.23 21.81 36.86 21.60 35.49 C 21.54 35.06 21.41 34.19 21.35 33.76 C 21.85 34.01 22.86 34.51 23.36 34.76 C 23.33 35.57 23.30 36.37 23.27 37.18 C 24.89 36.50 26.51 35.81 28.14 35.12 C 28.78 35.72 29.43 36.33 30.07 36.93 Z" />
<path fill="#3d3c79" d=" M 42.53 40.86 C 45.71 38.28 47.45 33.90 51.67 32.75 C 53.98 36.67 56.10 40.71 57.98 44.86 C 57.49 45.11 56.53 45.60 56.04 45.84 C 55.06 44.06 54.05 42.28 53.23 40.42 C 52.57 38.47 51.80 36.51 50.10 35.23 C 49.90 35.51 49.50 36.09 49.30 36.38 C 48.54 37.47 47.85 38.59 47.10 39.69 C 46.04 40.57 44.97 41.44 43.90 42.31 C 43.56 41.95 42.87 41.22 42.53 40.86 Z" />
<path fill="#5985b0" d=" M 55.60 34.01 C 56.07 33.83 57.01 33.45 57.48 33.26 C 57.68 33.59 58.08 34.24 58.28 34.57 C 57.83 36.09 54.33 35.95 55.60 34.01 Z" />
<path fill="#9b6cac" d=" M 76.75 35.56 C 75.20 33.13 78.87 32.79 80.23 32.12 C 80.07 32.88 79.75 34.39 79.59 35.15 C 81.79 38.54 86.29 39.62 89.53 41.87 L 88.16 42.43 C 90.45 43.73 93.44 44.05 95.06 46.30 C 90.19 47.57 84.62 48.07 80.87 51.82 C 78.50 53.87 78.18 57.15 77.43 59.99 C 73.85 58.48 70.22 57.09 66.63 55.58 C 68.25 54.97 69.86 54.35 71.48 53.74 C 72.71 54.28 73.97 54.75 75.24 55.21 C 74.77 54.83 73.85 54.07 73.39 53.69 C 72.46 49.86 75.38 47.32 78.52 45.83 C 80.13 45.47 81.73 45.02 83.31 44.53 C 82.47 44.49 81.64 44.48 80.80 44.48 C 79.43 43.18 78.03 41.92 76.60 40.69 C 76.65 39.29 76.72 37.88 76.81 36.48 C 77.13 36.26 77.77 35.81 78.09 35.59 L 76.75 35.56 Z" />
<path fill="#040404" d=" M 75.48 35.54 C 75.79 35.55 76.43 35.56 76.75 35.56 L 78.09 35.59 C 77.77 35.81 77.13 36.26 76.81 36.48 C 74.47 37.81 71.95 38.78 69.48 39.85 C 71.54 38.50 73.69 37.26 75.48 35.54 Z" />
<path fill="#e4edee" d=" M 19.62 39.13 C 19.94 37.73 20.32 36.31 21.60 35.49 C 21.81 36.86 22.00 38.23 22.17 39.61 C 21.54 39.49 20.26 39.25 19.62 39.13 Z" />
<path fill="#040404" d=" M 49.30 36.38 C 49.50 36.09 49.90 35.51 50.10 35.23 C 51.80 36.51 52.57 38.47 53.23 40.42 C 52.57 41.50 51.84 42.53 51.04 43.52 C 48.70 43.73 48.37 41.20 47.45 39.65 C 48.10 39.59 49.39 39.49 50.04 39.44 C 50.69 38.31 49.83 37.34 49.30 36.38 Z" />
<path fill="#e4edee" d=" M 47.10 39.69 C 47.85 38.59 48.54 37.47 49.30 36.38 C 49.83 37.34 50.69 38.31 50.04 39.44 C 49.39 39.49 48.10 39.59 47.45 39.65 L 47.10 39.69 Z" />
<path fill="#3f9277" d=" M 55.92 37.02 C 56.70 37.12 58.26 37.33 59.04 37.43 C 59.73 38.93 60.41 40.43 61.01 41.96 C 60.58 42.64 59.71 43.98 59.27 44.66 C 58.10 42.13 56.98 39.59 55.92 37.02 Z" />
<path fill="#403c80" d=" M 69.48 39.85 C 71.95 38.78 74.47 37.81 76.81 36.48 C 76.72 37.88 76.65 39.29 76.60 40.69 C 78.03 41.92 79.43 43.18 80.80 44.48 C 76.46 44.97 71.78 44.47 67.81 46.60 C 71.36 46.10 74.93 45.72 78.52 45.83 C 75.38 47.32 72.46 49.86 73.39 53.69 C 71.26 52.22 69.05 50.85 66.89 49.43 C 68.28 51.01 69.78 52.50 71.48 53.74 C 69.86 54.35 68.25 54.97 66.63 55.58 L 66.14 55.35 C 64.50 52.97 63.71 50.16 63.00 47.40 C 64.14 44.20 66.81 41.80 69.48 39.85 Z" />
<path fill="#ca94d0" d=" M 27.70 38.91 C 30.24 39.37 34.45 38.89 35.29 42.07 C 32.81 41.22 28.49 42.16 27.70 38.91 Z" />
<path fill="#e4edee" d=" M 88.16 42.43 L 89.53 41.87 C 92.46 43.14 95.39 44.41 98.25 45.83 C 97.19 45.98 96.12 46.12 95.06 46.30 C 93.44 44.05 90.45 43.73 88.16 42.43 Z" />
<path fill="#8e9191" d=" M 14.65 43.35 L 14.79 43.44 C 14.76 43.49 14.69 43.60 14.65 43.66 L 14.65 43.35 Z" />
<path fill="#040404" d=" M 67.81 46.60 C 71.78 44.47 76.46 44.97 80.80 44.48 C 81.64 44.48 82.47 44.49 83.31 44.53 C 81.73 45.02 80.13 45.47 78.52 45.83 C 74.93 45.72 71.36 46.10 67.81 46.60 Z" />
<path fill="#e4edee" d=" M 21.00 47.29 C 22.07 46.28 23.15 45.28 24.25 44.30 C 24.53 45.56 24.81 46.82 25.09 48.08 C 23.72 47.83 22.36 47.57 21.00 47.29 Z" />
<path fill="#d1dadd" d=" M 47.96 46.77 C 49.66 47.27 50.81 48.71 52.00 49.92 C 49.95 50.15 47.89 50.14 45.84 49.97 C 46.52 48.88 47.17 47.78 47.96 46.77 Z" />
<path fill="#c7d0d2" d=" M 38.44 49.70 C 37.86 47.11 42.30 47.32 41.74 49.80 C 40.63 50.19 39.53 50.16 38.44 49.70 Z" />
<path fill="#040404" d=" M 71.48 53.74 C 69.78 52.50 68.28 51.01 66.89 49.43 C 69.05 50.85 71.26 52.22 73.39 53.69 C 73.85 54.07 74.77 54.83 75.24 55.21 C 73.97 54.75 72.71 54.28 71.48 53.74 Z" />
<path fill="#8e9191" d=" M 12.50 51.25 C 12.54 51.31 12.62 51.44 12.66 51.50 C 12.62 51.44 12.54 51.31 12.50 51.25 Z" />
<path fill="#e4edee" d=" M 36.33 51.27 C 37.29 51.25 38.10 51.57 38.78 52.24 C 43.27 52.22 47.84 52.47 52.23 51.30 C 47.89 54.35 42.68 52.03 37.99 53.62 C 37.43 52.84 36.86 52.07 36.33 51.27 Z" />
<path fill="#403c80" d=" M 57.51 51.44 C 58.97 50.59 60.66 51.70 62.16 51.89 C 62.61 52.86 63.09 53.82 63.58 54.76 C 62.00 54.76 60.46 55.09 58.96 55.57 C 60.18 57.21 61.57 58.71 62.82 60.31 C 63.33 62.67 62.03 65.02 61.58 67.31 C 60.79 66.46 60.00 65.61 59.23 64.74 C 59.35 63.33 59.11 61.96 58.49 60.70 C 58.51 60.26 58.55 59.40 58.57 58.96 C 58.26 58.78 57.65 58.43 57.34 58.25 C 56.62 59.04 55.90 59.82 55.19 60.61 C 55.03 60.80 54.71 61.17 54.55 61.36 C 51.17 62.09 48.14 63.83 45.16 65.54 C 46.15 65.77 47.14 66.00 48.12 66.24 C 47.50 66.67 46.27 67.52 45.65 67.95 C 46.50 67.96 48.21 68.00 49.06 68.01 C 48.83 68.42 48.39 69.22 48.16 69.62 C 48.63 69.71 49.57 69.89 50.04 69.98 C 49.32 71.47 48.58 72.94 47.83 74.41 C 44.20 71.58 41.43 67.65 37.27 65.52 C 36.16 69.44 34.98 73.34 33.84 77.25 C 30.19 74.07 26.62 70.63 22.08 68.74 C 22.01 70.77 21.92 72.81 21.76 74.84 C 19.29 71.77 20.77 66.62 24.23 64.92 C 25.76 67.49 28.65 67.29 31.23 66.93 C 29.85 65.66 28.31 64.59 26.70 63.63 C 27.23 63.37 28.30 62.83 28.84 62.56 C 31.60 63.97 34.85 65.45 37.98 64.33 C 43.51 61.90 50.23 61.76 54.43 56.86 C 55.82 55.25 55.34 52.42 57.51 51.44 Z" />
<path fill="#e4edee" d=" M 22.22 57.90 C 24.91 56.68 23.39 62.23 21.61 61.70 C 20.98 60.52 21.31 58.85 22.22 57.90 Z" />
<path fill="#9b6cac" d=" M 57.34 58.25 C 57.65 58.43 58.26 58.78 58.57 58.96 C 58.55 59.40 58.51 60.26 58.49 60.70 C 59.11 61.96 59.35 63.33 59.23 64.74 C 57.88 63.36 56.53 61.99 55.19 60.61 C 55.90 59.82 56.62 59.04 57.34 58.25 Z" />
<path fill="#e4edee" d=" M 67.00 57.87 C 68.04 58.71 69.29 59.05 70.59 59.24 C 73.87 60.60 76.97 62.29 79.34 65.01 C 79.36 63.03 79.37 61.05 79.48 59.07 C 79.26 63.12 80.33 67.09 80.12 71.13 C 79.82 71.49 79.22 72.21 78.92 72.58 C 76.58 74.70 74.46 77.06 72.27 79.33 C 69.73 81.98 66.18 83.25 63.36 85.55 C 63.11 83.38 62.80 81.23 62.35 79.10 C 62.13 77.86 61.91 76.61 61.71 75.36 C 60.02 75.55 57.78 74.85 56.78 76.69 C 54.49 79.91 50.82 82.81 51.04 87.13 C 47.36 86.79 43.67 87.19 39.98 87.16 C 36.83 86.81 33.79 85.79 30.81 84.75 C 31.12 83.45 31.75 82.32 32.90 81.58 C 33.25 83.50 34.89 85.50 37.05 84.79 C 38.00 80.64 38.34 76.39 38.96 72.19 L 42.19 72.85 L 39.78 71.26 L 38.29 71.63 C 38.34 70.22 38.30 68.82 38.16 67.42 C 41.83 70.52 45.21 73.91 48.54 77.36 C 48.57 77.97 48.63 79.21 48.66 79.83 C 49.99 80.00 50.88 79.46 51.34 78.22 C 53.52 74.21 54.99 69.88 56.93 65.76 C 59.35 68.10 61.20 71.10 64.44 72.48 L 62.59 73.44 C 65.15 74.02 65.38 71.09 64.48 69.29 L 65.65 69.84 C 65.91 65.83 67.33 61.95 67.00 57.87 Z" />
<path fill="#507065" d=" M 16.17 59.16 C 16.65 59.32 17.59 59.63 18.06 59.79 C 18.09 62.00 18.08 64.21 17.78 66.41 C 16.60 64.18 16.86 61.54 16.17 59.16 Z" />
<path fill="#9b6cac" d=" M 45.16 65.54 C 48.14 63.83 51.17 62.09 54.55 61.36 C 52.67 64.02 51.45 67.06 50.04 69.98 C 49.57 69.89 48.63 69.71 48.16 69.62 C 48.39 69.22 48.83 68.42 49.06 68.01 C 48.21 68.00 46.50 67.96 45.65 67.95 C 46.27 67.52 47.50 66.67 48.12 66.24 C 47.14 66.00 46.15 65.77 45.16 65.54 Z" />
<path fill="#747a77" d=" M 14.27 62.21 L 15.06 62.30 C 14.99 62.70 14.85 63.52 14.77 63.92 L 14.03 63.81 C 14.09 63.41 14.21 62.61 14.27 62.21 Z" />
<path fill="#8b62a1" d=" M 24.23 64.92 C 24.85 64.60 26.08 63.96 26.70 63.63 C 28.31 64.59 29.85 65.66 31.23 66.93 C 28.65 67.29 25.76 67.49 24.23 64.92 Z" />
<path fill="#3c8d73" d=" M 48.88 79.09 C 50.78 73.63 53.01 68.20 55.65 63.03 L 56.95 64.18 C 54.83 68.83 53.07 73.65 50.76 78.22 L 48.88 79.09 Z" />
<path fill="#e4edee" d=" M 15.00 66.16 C 16.65 66.52 17.09 69.37 16.81 70.82 C 15.35 70.39 14.41 67.57 15.00 66.16 Z" />
<path fill="#e4edee" d=" M 15.30 72.04 C 18.39 72.81 20.39 75.66 23.03 77.30 C 22.93 77.94 22.75 79.23 22.66 79.87 L 22.14 79.83 C 21.71 79.21 20.85 77.96 20.42 77.33 C 19.59 76.11 18.35 75.24 17.08 74.52 C 16.46 73.71 15.87 72.88 15.30 72.04 Z" />
<path fill="#dce5e7" d=" M 26.10 75.68 C 25.40 74.33 23.46 73.29 24.52 71.48 C 28.62 73.91 32.29 77.19 35.14 80.98 C 35.20 81.77 35.33 83.36 35.40 84.15 C 34.77 83.51 33.52 82.22 32.90 81.58 C 30.87 79.36 28.66 77.28 26.10 75.68 Z" />
<path fill="#5985b0" d=" M 72.27 79.33 C 74.46 77.06 76.58 74.70 78.92 72.58 C 79.86 75.21 78.09 77.92 77.80 80.56 C 75.55 80.92 72.96 81.33 71.58 83.36 C 70.94 86.61 71.24 89.95 71.23 93.23 C 67.96 95.70 65.36 99.26 61.32 100.51 C 59.19 101.18 57.32 102.78 55.01 102.74 C 50.64 102.73 46.23 102.80 41.93 101.93 C 40.88 98.89 40.65 95.14 38.03 92.96 C 36.08 93.68 34.75 95.44 33.11 96.65 C 31.56 97.65 30.69 97.27 30.49 95.51 C 22.52 91.65 18.32 83.01 15.79 74.92 L 17.08 74.52 C 18.35 75.24 19.59 76.11 20.42 77.33 C 19.01 79.90 19.90 82.57 21.31 84.89 L 21.94 85.07 C 21.93 87.38 23.69 89.53 26.00 89.84 C 28.18 88.81 29.30 86.52 30.71 84.71 L 30.81 84.75 C 33.79 85.79 36.83 86.81 39.98 87.16 C 43.67 87.19 47.36 86.79 51.04 87.13 C 51.30 89.31 51.44 91.50 51.51 93.69 C 53.29 94.79 55.34 97.12 57.58 95.73 C 60.70 93.44 63.44 90.00 62.90 85.89 L 63.36 85.55 C 66.18 83.25 69.73 81.98 72.27 79.33 Z" />
<path fill="#714f94" d=" M 23.57 75.64 C 24.39 75.29 25.28 75.33 26.10 75.68 C 28.66 77.28 30.87 79.36 32.90 81.58 C 31.75 82.32 31.12 83.45 30.81 84.75 L 30.71 84.71 C 28.38 83.51 26.02 82.39 23.63 81.31 C 23.82 79.41 23.80 77.52 23.57 75.64 Z" />
<path fill="#3f9277" d=" M 56.78 76.69 C 57.78 74.85 60.02 75.55 61.71 75.36 C 61.91 76.61 62.13 77.86 62.35 79.10 C 61.95 78.56 61.16 77.48 60.76 76.94 C 55.70 77.61 55.84 83.55 53.84 87.16 C 53.14 87.15 51.74 87.14 51.04 87.13 C 50.82 82.81 54.49 79.91 56.78 76.69 Z" />
<path fill="#2f6a57" d=" M 53.84 87.16 C 55.84 83.55 55.70 77.61 60.76 76.94 C 61.16 77.48 61.95 78.56 62.35 79.10 C 62.80 81.23 63.11 83.38 63.36 85.55 L 62.90 85.89 C 59.96 86.75 56.89 87.03 53.84 87.16 Z" />
<path fill="#293568" d=" M 21.31 84.89 C 19.90 82.57 19.01 79.90 20.42 77.33 C 20.85 77.96 21.71 79.21 22.14 79.83 C 22.51 80.20 23.26 80.94 23.63 81.31 C 26.02 82.39 28.38 83.51 30.71 84.71 C 29.30 86.52 28.18 88.81 26.00 89.84 C 23.69 89.53 21.93 87.38 21.94 85.07 L 21.31 84.89 Z" />
<path fill="#293568" d=" M 71.58 83.36 C 72.96 81.33 75.55 80.92 77.80 80.56 C 76.55 85.19 74.60 89.74 71.23 93.23 C 71.24 89.95 70.94 86.61 71.58 83.36 Z" />
<path fill="#1a4f55" d=" M 53.84 87.16 C 56.89 87.03 59.96 86.75 62.90 85.89 C 63.44 90.00 60.70 93.44 57.58 95.73 C 55.34 97.12 53.29 94.79 51.51 93.69 C 51.44 91.50 51.30 89.31 51.04 87.13 C 51.74 87.14 53.14 87.15 53.84 87.16 Z" />
<path fill="#405d76" d=" M 33.18 90.34 C 34.59 89.73 35.03 90.15 34.51 91.60 C 33.09 92.21 32.65 91.79 33.18 90.34 Z" />
<path fill="#989898" d=" M 22.61 92.16 C 22.67 92.22 22.79 92.34 22.85 92.40 C 22.79 92.34 22.67 92.22 22.61 92.16 Z" />
<path fill="#1a4f55" d=" M 33.11 96.65 C 34.75 95.44 36.08 93.68 38.03 92.96 C 40.65 95.14 40.88 98.89 41.93 101.93 C 39.95 101.16 37.96 100.43 35.96 99.72 C 36.18 99.29 36.60 98.43 36.81 98.00 C 35.87 98.36 34.93 98.71 33.99 99.06 C 33.77 98.46 33.33 97.26 33.11 96.65 Z" />
<path fill="#6d7475" d=" M 38.12 102.91 C 38.60 103.11 39.56 103.49 40.05 103.69 L 39.19 104.23 L 38.20 103.81 L 38.12 102.91 Z" />
</svg>
