<?xml version="1.0" encoding="UTF-8" ?>
<!DOCTYPE svg PUBLIC "-//W3C//DTD SVG 1.1//EN" "http://www.w3.org/Graphics/SVG/1.1/DTD/svg11.dtd">
<svg width="500pt" height="95pt" viewBox="0 0 500 95" version="1.1" xmlns="http://www.w3.org/2000/svg">

<path fill="#000000" d=" M 352.77 4.90 C 358.89 2.39 365.40 0.74 372.01 0.31 C 386.68 -0.19 401.05 5.98 412.02 15.51 C 412.84 12.35 413.64 9.19 414.41 6.01 C 427.07 6.03 439.74 6.01 452.40 6.03 C 455.78 11.81 458.67 17.86 461.81 23.78 C 463.31 18.20 464.43 12.51 466.10 6.98 C 466.59 4.76 469.36 5.66 470.97 5.43 C 479.98 5.65 488.97 6.31 498.00 6.02 C 497.98 34.23 497.91 62.44 497.94 90.65 C 485.36 90.64 472.79 90.62 460.21 90.66 C 456.50 84.38 452.55 78.22 449.34 71.68 C 449.74 77.99 449.89 84.32 450.02 90.64 C 438.04 90.66 426.05 90.60 414.07 90.67 C 412.54 87.34 411.15 83.96 409.80 80.57 C 400.70 88.74 388.95 94.34 376.65 95.00 L 370.36 95.00 C 358.34 94.13 347.05 88.73 337.77 81.22 C 337.20 84.45 336.62 87.67 335.83 90.85 C 323.99 90.76 312.15 90.82 300.31 90.82 C 299.90 87.30 299.32 83.81 299.10 80.27 C 295.95 85.18 293.05 90.25 289.66 95.00 L 288.70 95.00 C 284.56 90.45 280.83 85.53 276.84 80.85 C 276.39 84.12 275.89 87.38 275.63 90.67 C 240.96 90.66 206.29 90.76 171.62 90.83 C 168.57 85.07 165.51 79.31 162.06 73.78 C 161.71 79.41 162.04 85.08 161.20 90.68 C 128.52 90.66 95.84 90.77 63.16 90.82 C 63.17 86.90 63.18 82.98 63.15 79.05 C 59.16 84.38 55.24 89.76 51.14 95.00 L 50.66 95.00 C 46.41 89.44 42.63 83.54 38.51 77.88 C 38.70 82.19 38.63 86.50 38.66 90.81 C 27.19 90.81 15.71 90.79 4.24 90.82 C 4.26 62.58 4.20 34.34 4.16 6.10 C 16.28 6.09 28.40 6.07 40.52 6.01 C 43.65 14.26 46.72 22.53 49.86 30.77 C 54.30 22.54 58.96 14.42 63.23 6.10 C 97.39 5.88 131.55 6.14 165.72 5.97 C 169.53 11.79 173.03 17.83 176.43 23.91 C 177.10 17.95 177.52 11.96 178.33 6.01 C 195.90 6.02 213.47 6.04 231.04 6.00 C 244.68 5.00 258.37 5.74 272.03 5.43 C 273.70 5.59 276.17 4.86 277.01 6.87 C 280.29 13.96 283.70 20.99 286.91 28.11 C 291.56 20.85 295.77 13.31 300.35 6.00 C 313.07 6.04 325.79 6.01 338.50 6.02 C 338.73 8.31 338.96 10.61 339.24 12.89 C 343.71 10.16 347.88 6.88 352.77 4.90 Z" />
<path fill="#ffffff" d=" M 367.58 6.71 C 376.91 5.23 386.96 6.85 394.84 12.26 C 404.09 18.60 410.79 28.72 412.56 39.85 C 414.25 50.10 412.49 61.08 406.82 69.89 C 401.74 77.78 394.18 84.38 385.05 87.04 C 374.79 89.93 363.17 88.76 354.17 82.84 C 344.92 76.76 338.04 66.96 335.98 56.03 C 334.03 45.81 335.46 34.79 340.84 25.80 C 346.57 16.12 356.24 8.37 367.58 6.71 Z" />
<path fill="#178ce6" d=" M 342.89 29.90 C 348.09 19.59 358.20 11.14 370.00 10.19 C 378.33 9.18 387.08 11.12 393.87 16.15 C 401.13 21.65 406.58 29.64 408.59 38.56 C 409.70 43.97 409.44 49.54 408.91 55.00 L 408.70 54.92 C 408.22 54.71 407.25 54.30 406.77 54.10 C 405.63 52.22 404.63 50.27 403.53 48.38 C 403.58 50.01 403.55 51.64 403.45 53.27 C 401.67 53.26 399.93 53.58 398.27 54.17 C 396.50 53.43 394.75 52.64 393.01 51.83 C 394.42 43.24 391.44 33.90 384.77 28.18 C 378.99 23.28 369.79 23.17 363.90 27.95 C 357.37 33.20 354.35 41.89 355.06 50.11 C 353.43 50.60 352.22 51.73 351.24 53.07 C 347.93 54.61 344.23 54.60 340.67 54.34 C 340.41 54.65 339.90 55.28 339.64 55.59 L 339.56 55.68 C 338.24 47.02 338.72 37.77 342.89 29.90 Z" />
<path fill="#ffffff" d=" M 101.46 11.07 C 109.37 11.19 117.26 11.62 125.16 11.88 C 123.38 36.44 123.13 61.08 124.00 85.68 C 116.31 85.85 108.62 86.25 100.93 86.43 C 99.50 61.32 100.10 36.16 101.46 11.07 Z" />
<path fill="#ffffff" d=" M 215.44 11.06 C 223.35 11.20 231.24 11.61 239.14 11.88 C 237.36 36.44 237.09 61.08 237.98 85.68 C 230.29 85.83 222.61 86.33 214.91 86.39 C 213.46 61.30 214.08 36.14 215.44 11.06 Z" />
<path fill="#ffffff" d=" M 303.90 11.56 C 312.65 11.77 321.41 12.03 330.16 12.51 C 330.10 36.34 331.19 60.23 328.89 83.99 C 321.44 84.42 313.99 84.77 306.54 85.21 C 307.66 73.26 307.84 61.25 308.23 49.27 C 301.67 61.58 295.05 73.87 288.32 86.09 C 281.77 73.98 275.38 61.77 268.61 49.79 C 268.86 61.60 269.56 73.40 270.23 85.20 C 262.77 84.78 255.30 84.39 247.83 84.02 C 245.67 60.21 246.54 36.30 246.68 12.44 C 255.40 12.10 264.12 11.74 272.84 11.55 C 278.02 22.35 283.15 33.18 288.41 43.93 C 293.52 33.12 298.81 22.38 303.90 11.56 Z" />
<path fill="#ffffff" d=" M 9.26 12.44 C 17.97 12.09 26.69 11.78 35.41 11.52 C 40.66 22.24 45.57 33.13 51.03 43.75 C 56.30 33.05 61.36 22.24 66.57 11.50 C 75.28 11.80 83.99 12.08 92.70 12.43 C 92.74 36.27 93.67 60.17 91.53 83.96 C 84.07 84.46 76.59 84.71 69.13 85.21 C 70.21 73.38 70.55 61.49 70.77 49.62 C 64.05 61.72 57.59 73.96 50.98 86.11 C 44.35 73.98 37.93 61.72 31.18 49.66 C 31.46 61.51 32.14 73.36 32.83 85.19 C 25.37 84.75 17.89 84.43 10.43 83.96 C 8.28 60.18 9.24 36.28 9.26 12.44 Z" />
<path fill="#ffffff" d=" M 132.39 12.70 C 142.08 12.37 151.76 12.05 161.45 11.76 C 168.59 24.78 175.68 37.83 182.67 50.93 C 183.32 38.32 183.55 25.69 184.18 13.07 C 191.76 13.34 199.34 13.54 206.92 13.87 C 206.41 37.64 206.06 61.42 205.46 85.20 C 196.41 85.09 187.36 84.85 178.30 84.77 C 171.17 72.86 163.98 60.98 156.78 49.11 C 157.03 61.35 157.22 73.62 158.55 85.81 C 150.29 85.42 142.03 85.11 133.79 84.60 C 131.31 60.71 132.31 36.67 132.39 12.70 Z" />
<path fill="#ffffff" d=" M 418.24 12.66 C 427.92 12.42 437.60 12.02 447.29 11.78 C 454.38 24.82 461.48 37.86 468.51 50.94 C 469.00 38.32 469.44 25.70 469.95 13.08 C 477.55 13.32 485.14 13.55 492.73 13.86 C 492.24 37.63 491.78 61.40 491.31 85.17 C 482.25 85.19 473.21 84.79 464.16 84.82 C 456.97 72.86 449.70 60.95 442.55 48.97 C 442.78 61.27 443.04 73.59 444.34 85.83 C 436.11 85.43 427.87 85.06 419.64 84.65 C 417.06 60.74 418.05 36.66 418.24 12.66 Z" />
<path fill="#178ce6" d=" M 105.13 14.86 C 110.50 15.22 115.89 15.13 121.25 15.63 C 120.44 25.29 120.14 34.99 119.89 44.68 C 118.29 45.37 116.69 46.07 115.09 46.77 C 113.93 46.11 112.78 45.44 111.63 44.76 C 112.42 46.67 112.47 48.69 111.63 50.59 C 109.37 50.70 107.10 50.45 104.93 49.81 C 105.57 49.43 106.87 48.67 107.52 48.28 C 107.60 46.62 107.69 44.95 107.77 43.28 C 106.48 43.98 105.19 44.68 103.90 45.39 C 104.23 35.21 104.43 25.02 105.13 14.86 Z" />
<path fill="#178ce6" d=" M 218.97 15.04 C 224.30 14.99 229.61 15.28 234.93 15.48 C 234.59 26.37 233.92 37.25 233.70 48.15 C 228.54 46.58 223.42 44.63 217.89 45.39 C 218.19 35.27 218.51 25.15 218.97 15.04 Z" />
<path fill="#178ce6" d=" M 12.91 16.12 C 19.64 15.73 26.38 15.61 33.12 15.37 C 37.75 25.37 42.81 35.18 47.29 45.25 C 46.22 45.41 45.16 45.57 44.09 45.74 C 43.52 45.41 42.95 45.07 42.38 44.74 C 42.07 44.98 41.45 45.46 41.15 45.69 C 40.55 44.95 39.96 44.22 39.37 43.48 C 38.43 44.26 37.49 45.05 36.55 45.84 C 36.19 45.45 35.47 44.69 35.11 44.31 C 34.87 44.92 34.37 46.16 34.13 46.77 C 32.70 46.38 31.28 45.95 29.87 45.48 C 30.60 44.60 31.30 43.71 32.01 42.81 C 27.88 41.75 23.63 41.53 19.39 41.57 C 17.80 41.67 16.53 40.60 15.25 39.84 C 14.43 39.99 13.62 40.15 12.80 40.30 C 12.83 32.24 12.92 24.18 12.91 16.12 Z" />
<path fill="#178ce6" d=" M 55.22 44.15 C 59.48 34.44 64.37 25.01 68.84 15.39 C 75.56 15.64 82.28 15.72 88.99 16.14 C 89.12 27.24 89.18 38.34 89.17 49.44 C 88.24 49.22 87.30 49.02 86.36 48.82 C 83.04 51.43 78.55 50.13 74.68 50.71 C 74.33 48.91 74.16 46.43 71.96 45.94 C 69.75 45.05 68.02 47.08 66.82 48.63 L 66.79 48.62 C 62.78 47.55 58.83 46.21 55.22 44.15 Z" />
<path fill="#178ce6" d=" M 136.11 16.35 C 143.81 16.11 151.52 15.86 159.22 15.59 C 165.83 27.77 172.68 39.84 178.98 52.18 C 176.22 52.54 173.38 52.53 170.73 51.54 C 170.61 52.68 170.48 53.81 170.35 54.95 C 169.22 54.65 168.08 54.39 166.96 54.05 C 166.67 52.68 166.60 51.28 166.48 49.89 C 165.47 50.88 164.45 51.86 163.44 52.84 C 161.38 50.13 160.29 44.96 156.01 45.48 C 153.12 46.03 153.07 49.17 153.00 51.48 C 149.45 51.52 145.90 51.45 142.37 51.00 C 142.49 48.48 142.58 45.97 142.67 43.46 C 142.12 43.43 141.03 43.36 140.49 43.32 C 139.05 45.14 137.55 46.91 135.96 48.60 C 135.76 37.85 136.12 27.10 136.11 16.35 Z" />
<path fill="#178ce6" d=" M 250.38 16.17 C 257.15 15.81 263.92 15.47 270.69 15.48 C 275.00 25.33 280.00 34.87 284.48 44.64 C 280.76 43.19 276.74 43.29 272.84 43.62 C 272.51 44.85 272.19 46.07 271.87 47.30 C 270.71 46.61 269.56 45.92 268.36 45.32 C 265.25 43.60 262.28 46.29 259.19 46.55 C 256.59 46.35 254.03 45.60 251.41 45.99 C 251.56 51.41 250.53 56.75 250.39 62.14 C 249.94 46.82 250.28 31.49 250.38 16.17 Z" />
<path fill="#178ce6" d=" M 306.15 15.45 C 312.89 15.57 319.63 15.76 326.36 16.16 C 326.45 28.49 326.66 40.81 326.57 53.13 C 323.64 53.31 321.21 55.00 318.61 56.14 C 316.38 56.64 314.08 56.51 311.81 56.57 C 311.75 53.56 312.32 50.43 311.42 47.52 C 310.49 45.72 308.30 45.88 306.58 45.76 C 304.19 44.16 301.54 42.97 298.74 44.33 C 296.93 42.84 294.82 42.34 292.71 43.58 C 297.17 34.19 301.86 24.91 306.15 15.45 Z" />
<path fill="#178ce6" d=" M 421.86 16.35 C 429.62 16.02 437.38 15.85 445.15 15.62 C 450.69 25.98 456.35 36.28 461.95 46.62 C 460.67 46.63 459.39 46.64 458.12 46.66 C 458.70 47.69 459.29 48.73 459.88 49.77 C 456.09 49.24 452.26 48.61 448.85 46.78 C 448.21 47.02 446.92 47.49 446.28 47.73 C 444.97 46.42 443.05 44.58 441.09 45.80 C 439.75 46.27 439.34 47.74 438.68 48.84 C 433.16 47.33 427.41 47.09 421.73 46.72 C 421.69 36.60 421.84 26.48 421.86 16.35 Z" />
<path fill="#178ce6" d=" M 187.78 16.99 C 192.85 17.18 197.92 17.36 202.99 17.44 C 202.89 28.35 202.67 39.25 202.42 50.16 C 200.50 51.16 198.74 52.66 196.60 53.17 C 194.53 53.03 192.46 52.68 190.41 53.20 C 190.35 52.78 190.25 51.93 190.20 51.51 C 188.71 51.86 187.19 52.15 185.68 52.39 C 186.28 51.01 186.59 49.57 186.62 48.07 C 186.99 37.71 187.37 27.35 187.78 16.99 Z" />
<path fill="#178ce6" d=" M 473.49 17.06 C 478.61 17.10 483.72 17.36 488.84 17.46 C 488.75 26.58 488.45 35.70 488.38 44.82 C 486.73 44.25 485.12 43.59 483.55 42.84 C 483.71 43.56 485.40 45.09 483.95 45.43 C 480.16 45.98 476.33 45.43 472.53 45.34 C 472.71 35.91 473.30 26.49 473.49 17.06 Z" />
<path fill="#000000" d=" M 370.47 28.68 C 375.63 27.09 381.48 29.11 384.66 33.43 C 392.13 42.14 391.03 56.90 381.86 63.99 C 376.13 68.34 367.26 66.64 363.23 60.76 C 355.18 51.04 358.07 33.23 370.47 28.68 Z" />
<path fill="#2848f2" d=" M 17.02 37.85 C 14.28 36.23 16.81 33.45 17.56 31.44 C 18.39 32.12 19.23 32.79 20.08 33.44 C 20.62 34.37 21.33 35.28 21.48 36.37 C 20.57 37.90 18.66 39.54 17.02 37.85 Z" />
<path fill="#2848f2" d=" M 33.04 35.40 C 35.37 35.39 37.71 35.45 40.04 35.51 C 38.57 36.60 37.12 37.72 35.67 38.84 C 33.63 38.80 33.26 37.09 33.04 35.40 Z" />
<path fill="#2848f2" d=" M 12.80 40.30 C 13.62 40.15 14.43 39.99 15.25 39.84 C 16.53 40.60 17.80 41.67 19.39 41.57 C 23.63 41.53 27.88 41.75 32.01 42.81 C 31.30 43.71 30.60 44.60 29.87 45.48 C 28.83 46.80 27.17 48.00 27.45 49.91 C 27.50 60.36 28.36 70.78 28.87 81.22 C 23.85 80.96 18.82 80.78 13.81 80.34 C 12.86 67.02 12.68 53.66 12.80 40.30 Z" />
<path fill="#2848f2" d=" M 292.71 43.58 C 294.82 42.34 296.93 42.84 298.74 44.33 C 301.54 42.97 304.19 44.16 306.58 45.76 C 304.06 48.37 302.68 51.76 300.94 54.88 C 296.79 62.65 292.63 70.40 288.43 78.14 C 282.81 67.92 277.13 57.71 271.87 47.30 C 272.19 46.07 272.51 44.85 272.84 43.62 C 276.74 43.29 280.76 43.19 284.48 44.64 C 285.35 45.96 286.14 47.73 288.06 47.50 C 290.56 47.92 291.93 45.53 292.71 43.58 Z" />
<path fill="#2848f2" d=" M 39.37 43.48 C 39.96 44.22 40.55 44.95 41.15 45.69 C 41.45 45.46 42.07 44.98 42.38 44.74 C 42.95 45.07 43.52 45.41 44.09 45.74 C 45.16 45.57 46.22 45.41 47.29 45.25 C 49.09 48.87 54.18 47.80 55.14 44.11 L 55.22 44.15 C 58.83 46.21 62.78 47.55 66.79 48.62 C 61.74 58.62 56.24 68.39 50.96 78.27 C 45.34 67.77 39.66 57.31 34.13 46.77 C 34.37 46.16 34.87 44.92 35.11 44.31 C 35.47 44.69 36.19 45.45 36.55 45.84 C 37.49 45.05 38.43 44.26 39.37 43.48 Z" />
<path fill="#2848f2" d=" M 103.90 45.39 C 105.19 44.68 106.48 43.98 107.77 43.28 C 107.69 44.95 107.60 46.62 107.52 48.28 C 106.87 48.67 105.57 49.43 104.93 49.81 C 107.10 50.45 109.37 50.70 111.63 50.59 C 112.47 48.69 112.42 46.67 111.63 44.76 C 112.78 45.44 113.93 46.11 115.09 46.77 C 116.69 46.07 118.29 45.37 119.89 44.68 C 119.54 57.13 119.84 69.59 120.13 82.04 C 114.91 82.19 109.70 82.37 104.49 82.59 C 103.87 70.20 103.78 57.79 103.90 45.39 Z" />
<path fill="#2848f2" d=" M 140.49 43.32 C 141.03 43.36 142.12 43.43 142.67 43.46 C 142.58 45.97 142.49 48.48 142.37 51.00 C 145.90 51.45 149.45 51.52 153.00 51.48 C 153.27 61.61 153.53 71.75 154.40 81.85 C 148.67 81.63 142.95 81.36 137.23 81.02 C 136.26 70.25 135.83 59.41 135.96 48.60 C 137.55 46.91 139.05 45.14 140.49 43.32 Z" />
<path fill="#2848f2" d=" M 483.55 42.84 C 485.12 43.59 486.73 44.25 488.38 44.82 C 488.08 56.98 487.81 69.15 487.67 81.31 C 480.54 81.10 473.36 81.48 466.26 80.85 C 459.47 69.90 452.78 58.86 446.28 47.73 C 446.92 47.49 448.21 47.02 448.85 46.78 C 452.26 48.61 456.09 49.24 459.88 49.77 C 459.29 48.73 458.70 47.69 458.12 46.66 C 459.39 46.64 460.67 46.63 461.95 46.62 C 463.88 49.45 464.72 54.50 468.88 54.68 C 473.38 54.15 472.24 48.52 472.53 45.34 C 476.33 45.43 480.16 45.98 483.95 45.43 C 485.40 45.09 483.71 43.56 483.55 42.84 Z" />
<path fill="#2848f2" d=" M 259.19 46.55 C 262.28 46.29 265.25 43.60 268.36 45.32 C 266.44 46.12 264.61 47.59 264.86 49.90 C 264.85 60.35 265.80 70.77 266.24 81.20 C 261.27 80.96 256.30 80.70 251.33 80.42 C 250.83 74.34 250.48 68.24 250.39 62.14 C 250.53 56.75 251.56 51.41 251.41 45.99 C 254.03 45.60 256.59 46.35 259.19 46.55 Z" />
<path fill="#2848f2" d=" M 217.89 45.39 C 223.42 44.63 228.54 46.58 233.70 48.15 C 233.61 59.44 233.74 70.74 234.10 82.02 C 228.89 82.18 223.68 82.41 218.47 82.54 C 217.89 70.17 217.73 57.78 217.89 45.39 Z" />
<path fill="#2848f2" d=" M 421.73 46.72 C 427.41 47.09 433.16 47.33 438.68 48.84 C 439.13 59.85 439.16 70.88 440.23 81.85 C 434.49 81.61 428.76 81.29 423.02 81.09 C 422.03 69.66 421.58 58.19 421.73 46.72 Z" />
<path fill="#2848f2" d=" M 86.36 48.82 C 87.30 49.02 88.24 49.22 89.17 49.44 C 89.24 59.76 88.83 70.07 88.14 80.37 C 83.17 80.74 78.19 81.01 73.20 81.21 C 74.05 71.06 74.13 60.87 74.68 50.71 C 78.55 50.13 83.04 51.43 86.36 48.82 Z" />
<path fill="#2848f2" d=" M 403.45 53.27 C 403.55 51.64 403.58 50.01 403.53 48.38 C 404.63 50.27 405.63 52.22 406.77 54.10 C 407.25 54.30 408.22 54.71 408.70 54.92 C 406.98 64.88 400.76 73.85 392.43 79.48 C 383.91 85.27 372.68 86.17 362.99 83.08 C 351.15 78.78 342.29 67.79 339.64 55.59 C 339.90 55.28 340.41 54.65 340.67 54.34 C 344.23 54.60 347.93 54.61 351.24 53.07 C 352.22 51.73 353.43 50.60 355.06 50.11 C 355.92 56.56 358.86 62.98 364.19 66.91 C 370.23 71.48 379.42 71.19 385.12 66.19 C 389.38 62.54 391.94 57.27 393.01 51.83 C 394.75 52.64 396.50 53.43 398.27 54.17 C 399.93 53.58 401.67 53.26 403.45 53.27 Z" />
<path fill="#2848f2" d=" M 163.44 52.84 C 164.45 51.86 165.47 50.88 166.48 49.89 C 166.60 51.28 166.67 52.68 166.96 54.05 C 168.08 54.39 169.22 54.65 170.35 54.95 C 170.48 53.81 170.61 52.68 170.73 51.54 C 173.38 52.53 176.22 52.54 178.98 52.18 C 180.23 53.49 181.88 55.55 183.91 54.36 C 184.54 53.86 188.73 52.75 185.68 52.39 C 187.19 52.15 188.71 51.86 190.20 51.51 C 190.25 51.93 190.35 52.78 190.41 53.20 C 192.46 52.68 194.53 53.03 196.60 53.17 C 198.74 52.66 200.50 51.16 202.42 50.16 C 202.21 60.55 202.11 70.95 201.89 81.34 C 195.25 81.23 188.61 81.21 181.97 81.10 C 180.43 81.45 179.78 79.89 179.10 78.89 C 173.94 70.17 168.69 61.51 163.44 52.84 Z" />
<path fill="#2848f2" d=" M 318.61 56.14 C 321.21 55.00 323.64 53.31 326.57 53.13 C 326.44 62.24 326.18 71.35 325.48 80.43 C 320.53 80.65 315.59 80.94 310.65 81.21 C 311.20 73.01 311.58 64.79 311.81 56.57 C 314.08 56.51 316.38 56.64 318.61 56.14 Z" />
</svg>
